<svg xmlns="http://www.w3.org/2000/svg" viewBox="0 0 99.208983 16.33789"><g fill="#fff"><path d="M82.236 9.624V6.71H74.78V3.26h8.472V.347H71.5v15.64h11.87V13.07h-8.59V9.625zm0 0M23.516 15.986V1.91c0-.924-.723-1.65-1.65-1.65h-.387c-.66 0-1.128.267-1.48.84l-4.302 6.99-4.277-6.967C11.183.728 10.724.26 9.913.26h-.38c-.928 0-1.65.726-1.65 1.65v14.076h3.23V6.353l3.17 4.887c.38.572.816.84 1.372.84.552 0 .987-.268 1.367-.845l3.22-4.95v9.7zm0 0M0 .26v15.726h3.516V.26zm0 0M34.458 4.004l2.363 5.62H32.1zm3.54 8.437l1.514 3.546h3.48L36.55 1.426c-.39-.864-1.055-1.323-1.93-1.323h-.204c-.874 0-1.567.468-1.953 1.323l-6.444 14.56h3.393l1.513-3.545zm0 0M68.926.347H53.604c-.723 0-1.26.385-1.592 1.142l-2.354 5.59-3.965-5.713c-.488-.718-.976-1.02-1.64-1.02H40.77l7.458 10.127-2.325 5.512h3.15l5.327-12.02c.16-.358.513-.592.903-.592h5.528v12.612h3.3V3.374h4.816zm0 0M99.21 1.426C97.846.454 96.146 0 93.866 0c-4.565 0-8.28 3.662-8.28 8.17 0 4.506 3.715 8.168 8.28 8.168 2.28 0 3.98-.45 5.342-1.426V11.49l-.03-.03c-1.46 1.21-3.155 1.777-5.313 1.777-2.73 0-4.956-2.275-4.956-5.068 0-2.794 2.228-5.07 4.957-5.07 2.158 0 3.853.567 5.313 1.778l.03-.03zm0 0"/></g></svg>